<svg xmlns="http://www.w3.org/2000/svg"><symbol viewBox="0 0 991.58527 984.17206" id="counting">
<symbol id="icon-home" viewBox="0 0 32 32">
<path d="M32 19l-6-6v-9h-4v5l-6-6-16 16v1h4v10h10v-6h4v6h10v-10h4z"></path>
</symbol>
<symbol id="icon-truck" viewBox="0 0 32 32">
<path d="M32 18l-4-8h-6v-4c0-1.1-0.9-2-2-2h-18c-1.1 0-2 0.9-2 2v16l2 2h2.536c-0.341 0.588-0.536 1.271-0.536 2 0 2.209 1.791 4 4 4s4-1.791 4-4c0-0.729-0.196-1.412-0.536-2h11.073c-0.341 0.588-0.537 1.271-0.537 2 0 2.209 1.791 4 4 4s4-1.791 4-4c0-0.729-0.196-1.412-0.537-2h2.537v-6zM22 18v-6h4.146l3 6h-7.146z"></path>
</symbol>
<symbol id="icon-phone" viewBox="0 0 32 32">
<path d="M22 20c-2 2-2 4-4 4s-4-2-6-4-4-4-4-6 2-2 4-4-4-8-6-8-6 6-6 6c0 4 4.109 12.109 8 16s12 8 16 8c0 0 6-4 6-6s-6-8-8-6z"></path>
</symbol>
<symbol id="icon-clipboard" viewBox="0 0 32 32">
<path d="M29 4h-9c0-2.209-1.791-4-4-4s-4 1.791-4 4h-9c-0.552 0-1 0.448-1 1v26c0 0.552 0.448 1 1 1h26c0.552 0 1-0.448 1-1v-26c0-0.552-0.448-1-1-1zM16 2c1.105 0 2 0.895 2 2s-0.895 2-2 2c-1.105 0-2-0.895-2-2s0.895-2 2-2zM28 30h-24v-24h4v3c0 0.552 0.448 1 1 1h14c0.552 0 1-0.448 1-1v-3h4v24z"></path>
<path d="M14 26.828l-6.414-7.414 1.828-1.828 4.586 3.586 8.586-7.586 1.829 1.828z"></path>
</symbol>
<symbol id="icon-hour-glass" viewBox="0 0 32 32">
<path d="M22.781 16c4.305-2.729 7.219-7.975 7.219-14 0-0.677-0.037-1.345-0.109-2h-27.783c-0.072 0.655-0.109 1.323-0.109 2 0 6.025 2.914 11.271 7.219 14-4.305 2.729-7.219 7.975-7.219 14 0 0.677 0.037 1.345 0.109 2h27.783c0.072-0.655 0.109-1.323 0.109-2 0-6.025-2.914-11.271-7.219-14zM5 30c0-5.841 2.505-10.794 7-12.428v-3.143c-4.495-1.634-7-6.587-7-12.428v0h22c0 5.841-2.505 10.794-7 12.428v3.143c4.495 1.634 7 6.587 7 12.428h-22zM19.363 20.925c-2.239-1.27-2.363-2.918-2.363-3.918v-2.007c0-1 0.119-2.654 2.367-3.927 1.203-0.699 2.244-1.761 3.033-3.073h-12.799c0.79 1.313 1.832 2.376 3.036 3.075 2.239 1.27 2.363 2.918 2.363 3.918v2.007c0 1-0.119 2.654-2.367 3.927-2.269 1.318-3.961 3.928-4.472 7.073h15.677c-0.511-3.147-2.204-5.758-4.475-7.075z"></path>
</symbol>
<symbol id="icon-arrow" viewBox="0 0 32 32">
<path d="M0.928 16.512h28.032l-2.464 2.432c-0.32 0.32-0.32 0.832 0 1.12v0c0.32 0.32 0.832 0.32 1.12 0l4.128-4.16c0.128-0.128 0.128-0.32 0-0.448l-4.128-4.16c-0.32-0.32-0.832-0.32-1.12 0v0c-0.32 0.32-0.32 0.832 0 1.12l2.464 2.432h-28.032c-0.448 0-0.8 0.352-0.8 0.8v0c0 0.512 0.352 0.864 0.8 0.864z"></path>
</symbol>
<symbol id="icon-checkmark" viewBox="0 0 32 32">
<path d="M27 4l-15 15-7-7-5 5 12 12 20-20z"></path>
</symbol>
<symbol id="icon-kyivstar" viewBox="0 0 32 32">
<path fill="#2396fd" style="fill: var(--color1, #2396fd)" d="M16.173 12.604c-1.086 0-1.966-0.855-1.966-1.911v-7.005c0-1.055 0.88-1.91 1.966-1.91s1.965 0.855 1.965 1.91v7.005c0 1.055-0.88 1.911-1.965 1.911z"></path>
<path fill="#2396fd" style="fill: var(--color1, #2396fd)" d="M11.58 15.845c-0.336 1.003-1.445 1.553-2.477 1.227l-6.856-2.165c-1.032-0.326-1.597-1.404-1.262-2.407s1.445-1.553 2.477-1.226l6.855 2.165c1.034 0.326 1.598 1.404 1.263 2.407z"></path>
<path fill="#2396fd" style="fill: var(--color1, #2396fd)" d="M20.766 15.846c0.336 1.003 1.444 1.553 2.477 1.226l6.855-2.165c1.032-0.326 1.598-1.404 1.262-2.407-0.335-1.003-1.444-1.553-2.477-1.227l-6.856 2.165c-1.032 0.326-1.597 1.404-1.262 2.407z"></path>
<path fill="#2396fd" style="fill: var(--color1, #2396fd)" d="M6.784 29.858c-0.879-0.62-1.074-1.815-0.436-2.669l4.236-5.668c0.638-0.854 1.867-1.043 2.745-0.423 0.879 0.62 1.075 1.815 0.436 2.668l-4.235 5.669c-0.638 0.853-1.868 1.043-2.745 0.423z"></path>
<path fill="#2396fd" style="fill: var(--color1, #2396fd)" d="M25.562 29.858c0.879-0.62 1.073-1.815 0.435-2.669l-4.235-5.668c-0.638-0.854-1.867-1.043-2.746-0.423s-1.073 1.815-0.435 2.668l4.236 5.669c0.637 0.853 1.868 1.043 2.745 0.423z"></path>
</symbol>
<symbol id="icon-life" viewBox="0 0 31 32">
<path fill="#ffc40c" style="fill: var(--color2, #ffc40c)" d="M28.248 7.303c-1.132-1.812-2.547-3.283-4.132-4.416-1.642-1.132-3.453-1.981-5.548-2.434-3.397-0.849-6.68-0.453-9.85 0.962-1.755 0.793-3.34 1.868-4.642 3.283-1.698 1.755-2.887 3.68-3.623 5.887v0.057c0 0.057-0.057 0.17-0.057 0.226-0.736 2.547-0.057 3.906 1.076 2.774 0.057-0.057 0.113-0.113 0.113-0.17l0.057-0.057c1.302-1.642 3.397-3 3.397-3 0.509-0.34 1.076-0.736 1.642-1.019 0.679-0.396 1.359-0.736 1.981-0.962 0 0 0.566-0.283 0.736-1.076v-0.057c0.113-0.679 0.849-2.547 2.887-2.661 0.623-0.113 1.302 0 1.868 0.283 1.019 0.453 1.755 1.415 1.925 2.547 0.113 0.906-0.113 1.755-0.566 2.434 0 0.057-0.057 0.057-0.057 0.113 0 0 0 0 0 0.057-0.396 0.509-0.906 0.906-1.585 1.132-0.396 0.113-0.793 0.226-1.132 0.226-0.226 0.057-0.509 0-0.736-0.057-0.283-0.057-0.566-0.17-0.793-0.283-0.396-0.17-0.736-0.396-0.849-0.509s-0.17-0.113-0.283-0.17c-0.226-0.057-0.396 0-0.509 0.057-0.057 0.057-0.113 0.057-0.17 0.113-0.509 0.396-0.962 0.849-1.415 1.302-1.189 1.245-2.151 2.661-2.604 3.34-0.226 0.396-0.453 0.793-0.679 1.189s-0.396 0.792-0.566 1.189c-0.453 0.509-0.736 1.189-0.962 1.868 0 0.057 0 0.057-0.057 0.113 0 0.057-0.057 0.113-0.057 0.113 0 0.057 0 0.113-0.057 0.113-1.415 4.868 1.132 7.699 3.283 4.755 0.113-0.17 0.226-0.396 0.34-0.566 2.264-3.906 6.85-6.737 6.85-6.737 0.283-0.17 0.566-0.34 0.849-0.509 0 0 0 0 0.057-0.057 0.792-0.453 1.585-0.849 2.434-1.189 0.736-0.34 1.528-0.623 2.208-0.793 0 0 0.793-0.226 0.962-1.132 0.17-0.679 0.623-1.698 1.755-2.208 0.283-0.113 0.509-0.226 0.792-0.283s0.623-0.113 0.906-0.057c0.17 0 0.34 0 0.509 0.057 1.415 0.283 2.547 1.415 2.717 2.944 0.226 1.868-1.076 3.51-2.944 3.736-0.906 0.113-1.755-0.113-2.434-0.623-0.792-0.34-1.415-0.113-1.642 0-0.679 0.396-1.359 0.793-1.981 1.245-1.189 0.906-2.151 1.811-2.491 2.151-0.792 0.849-1.528 1.755-2.151 2.717-0.057 0.057-0.057 0.113-0.113 0.17 0 0 0 0 0 0.057-0.623 1.019-1.359 2.378-1.925 3.963-0.057 0.113-0.113 0.226-0.113 0.396-0.623 2.038 0.736 2.887 2.208 3.17 0 0 1.189 0.227 2.887 0.113 0.113 0 0.17 0 0.283 0 0.453-0.057 0.849-0.113 1.302-0.17 2.944-0.509 5.548-1.755 7.812-3.736 2.83-2.547 4.529-5.661 5.038-9.397 0.623-3.849-0.113-7.359-2.151-10.529z"></path>
</symbol>
<symbol id="icon-voda" viewBox="0 0 32 32">
<path fill="#e60000" style="fill: var(--color3, #e60000)" d="M32.001 16c0 8.837-7.164 16-16 16s-16-7.164-16-16c0-8.837 7.164-16 16-16s16 7.164 16 16z"></path>
<path fill="#fff" style="fill: var(--color4, #fff)" d="M16.126 24.867c-4.369 0.014-8.915-3.714-8.935-9.702-0.012-3.96 2.123-7.776 4.854-10.034 2.668-2.205 6.313-3.621 9.622-3.632 0.426 0 0.871 0.034 1.144 0.126-2.894 0.6-5.197 3.293-5.187 6.348 0 0.002 0 0.003 0 0.005 0 0.090 0.007 0.177 0.021 0.263l-0.001-0.009c4.842 1.179 7.040 4.105 7.054 8.143s-3.178 8.473-8.572 8.491z"></path>
</symbol>
<symbol id="icon-facebook" viewBox="0 0 32 32">
      <path d="M21.329 5.313h2.921V.225C23.746.156 22.013 0 19.994 0c-4.212 0-7.097 2.649-7.097 7.519V12H8.249v5.688h4.648V32h5.699V17.689h4.46l.708-5.688h-5.169V8.082c.001-1.644.444-2.769 2.735-2.769z"/>
    </symbol>
    <symbol id="icon-instagram" viewBox="0 0 32 32">
      <path d="M31.969 9.408c-.075-1.7-.35-2.869-.744-3.882a7.793 7.793 0 0 0-1.851-2.838A7.867 7.867 0 0 0 26.542.844C25.523.45 24.361.175 22.66.1 20.947.019 20.403 0 16.059 0s-4.888.019-6.595.094c-1.7.075-2.869.35-3.882.744a7.803 7.803 0 0 0-2.838 1.85A7.867 7.867 0 0 0 .9 5.52C.506 6.539.231 7.702.156 9.402c-.081 1.713-.1 2.257-.1 6.601s.019 4.888.094 6.595c.075 1.7.35 2.869.744 3.882a7.895 7.895 0 0 0 1.85 2.838 7.867 7.867 0 0 0 2.832 1.844c1.019.394 2.182.669 3.882.744 1.706.075 2.25.094 6.595.094s4.888-.019 6.595-.094c1.7-.075 2.869-.35 3.882-.744a8.181 8.181 0 0 0 4.682-4.682c.394-1.019.669-2.182.744-3.882.075-1.707.094-2.25.094-6.595s-.006-4.888-.081-6.595zm-2.882 13.065c-.069 1.563-.331 2.407-.55 2.969a5.31 5.31 0 0 1-3.038 3.038c-.563.219-1.413.481-2.969.55-1.688.075-2.194.094-6.464.094s-4.782-.019-6.464-.094c-1.563-.069-2.407-.331-2.969-.55a4.926 4.926 0 0 1-1.838-1.194 4.974 4.974 0 0 1-1.194-1.838c-.219-.563-.481-1.413-.55-2.969-.075-1.688-.094-2.194-.094-6.464s.019-4.782.094-6.464c.069-1.563.331-2.407.55-2.969a4.868 4.868 0 0 1 1.2-1.838A4.974 4.974 0 0 1 6.639 3.55c.563-.219 1.413-.481 2.969-.55 1.688-.075 2.194-.094 6.464-.094 4.276 0 4.782.019 6.464.094 1.563.069 2.407.331 2.969.55a4.914 4.914 0 0 1 1.838 1.194 4.974 4.974 0 0 1 1.194 1.838c.219.563.481 1.413.55 2.969.075 1.688.094 2.194.094 6.464s-.019 4.77-.094 6.458z"/>
      <path d="M16.059 7.783c-4.538 0-8.22 3.682-8.22 8.22s3.682 8.22 8.22 8.22c4.539 0 8.22-3.682 8.22-8.22s-3.682-8.22-8.22-8.22zm0 13.552a5.333 5.333 0 0 1 0-10.664 5.332 5.332 0 0 1 0 10.664zM26.524 7.458a1.919 1.919 0 1 1-3.838 0 1.919 1.919 0 0 1 3.838 0z"/>
    </symbol>
    <symbol id="icon-linkedin" viewBox="0 0 32 32">
      <path d="M31.992 32v-.001H32V20.263c0-5.741-1.236-10.164-7.948-10.164-3.227 0-5.392 1.771-6.276 3.449h-.093v-2.913h-6.364v21.364h6.627V21.42c0-2.785.528-5.479 3.977-5.479 3.399 0 3.449 3.179 3.449 5.657v10.401h6.62zM.528 10.636h6.635V32H.528V10.636zM3.843 0C1.722 0 0 1.721 0 3.843s1.721 3.879 3.843 3.879c2.121 0 3.843-1.757 3.843-3.879A3.846 3.846 0 0 0 3.843 0z"/>
    </symbol>
    <symbol id="icon-twitter" viewBox="0 0 32 32">
      <path d="M32 6.078c-1.19.522-2.458.868-3.78 1.036a6.523 6.523 0 0 0 2.886-3.626 13.11 13.11 0 0 1-4.16 1.588A6.574 6.574 0 0 0 22.154 3c-3.632 0-6.556 2.948-6.556 6.562 0 .52.044 1.02.152 1.496-5.454-.266-10.28-2.88-13.522-6.862a6.605 6.605 0 0 0-.898 3.316 6.57 6.57 0 0 0 2.914 5.452 6.479 6.479 0 0 1-2.964-.808v.072c0 3.188 2.274 5.836 5.256 6.446a6.548 6.548 0 0 1-1.72.216 5.8 5.8 0 0 1-1.242-.112c.85 2.598 3.262 4.508 6.13 4.57a13.182 13.182 0 0 1-8.134 2.798c-.538 0-1.054-.024-1.57-.09A18.469 18.469 0 0 0 10.064 29c12.072 0 18.672-10 18.672-18.668 0-.29-.01-.57-.024-.848A13.087 13.087 0 0 0 32 6.078z"/>
    </symbol>
    <symbol id="icon-men-burger" viewBox="0 0 47 32">
<path d="M0.892 0.115c-0.236 0.106-0.436 0.252-0.599 0.432l-0.001 0.001-0.291 0.324v2.483l0.332 0.332c0.636 0.636-1.54 0.583 23.293 0.56l22.106-0.019 0.407-0.225 0.407-0.227v-3.375l-0.806-0.401-22.269 0.003c-18.902 0.003-22.316 0.020-22.579 0.112zM1.068 13.575c-0.359 0.109-0.742 0.384-0.909 0.653-0.141 0.23-0.159 0.384-0.159 1.412 0 1.004 0.020 1.187 0.151 1.401 0.217 0.355 0.735 0.628 1.364 0.72 0.742 0.108 43.081 0.108 43.821 0 0.295-0.042 0.679-0.156 0.854-0.252l0.316-0.175v-3.408l-0.698-0.39-22.263-0.013c-12.246-0.007-22.361 0.016-22.477 0.051zM1.219 27.081c-0.394 0.078-0.73 0.283-0.972 0.571l-0.002 0.003-0.244 0.279v2.497l0.332 0.332c0.636 0.634-1.54 0.582 23.293 0.56 20.793-0.019 22.122-0.028 22.378-0.154 0.573-0.285 0.543-0.17 0.543-2.022v-1.673l-0.892-0.438-22.071-0.012c-12.748-0.007-22.193 0.016-22.364 0.057z"></path>
</symbol>
<symbol id="icon-close-cross" viewBox="0 0 32 32">
<path d="M32 3.223l-3.223-3.223-12.777 12.777-12.777-12.777-3.223 3.223 12.777 12.777-12.777 12.777 3.223 3.223 12.777-12.777 12.777 12.777 3.223-3.223-12.777-12.777 12.777-12.777z"></path>
</symbol>

</symbol></svg>